<svg xmlns="http://www.w3.org/2000/svg" viewBox="-50 -50 100 100" width="80" height="80">
  <!-- Dusty rose: 5 rounded mauve petals -->
  <g>
    <path d="M 0 -32 C 12 -32 18 -22 14 -10 C 6 -8 -6 -8 -14 -10 C -18 -22 -12 -32 0 -32 Z" fill="#A88A9D" transform="rotate(0)" />
    <path d="M 0 -32 C 12 -32 18 -22 14 -10 C 6 -8 -6 -8 -14 -10 C -18 -22 -12 -32 0 -32 Z" fill="#A88A9D" transform="rotate(72)" />
    <path d="M 0 -32 C 12 -32 18 -22 14 -10 C 6 -8 -6 -8 -14 -10 C -18 -22 -12 -32 0 -32 Z" fill="#A88A9D" transform="rotate(144)" />
    <path d="M 0 -32 C 12 -32 18 -22 14 -10 C 6 -8 -6 -8 -14 -10 C -18 -22 -12 -32 0 -32 Z" fill="#A88A9D" transform="rotate(216)" />
    <path d="M 0 -32 C 12 -32 18 -22 14 -10 C 6 -8 -6 -8 -14 -10 C -18 -22 -12 -32 0 -32 Z" fill="#A88A9D" transform="rotate(288)" />
  </g>
  <circle cx="0" cy="0" r="6" fill="#C58A7A" />
</svg>
