<?xml version="1.0" standalone="no"?>
<!DOCTYPE svg PUBLIC "-//W3C//DTD SVG 20010904//EN"
 "http://www.w3.org/TR/2001/REC-SVG-20010904/DTD/svg10.dtd">
<svg version="1.0" xmlns="http://www.w3.org/2000/svg"
 width="1385.000000pt" height="560.000000pt" viewBox="0 0 1385.000000 560.000000"
 preserveAspectRatio="xMidYMid meet">

<g transform="translate(0.000000,560.000000) scale(0.100000,-0.100000)"
fill="#000000" stroke="none">
<path d="M5147 5373 c-30 -32 -57 -92 -57 -127 0 -23 -3 -22 -46 24 -62 67
-134 100 -134 63 1 -26 38 -105 63 -132 l22 -23 -42 7 c-57 9 -103 -2 -103
-25 0 -27 59 -79 104 -91 22 -6 59 -8 82 -4 l42 6 13 -58 c17 -77 14 -88 -37
-156 -26 -35 -44 -70 -44 -85 0 -15 14 -56 31 -92 27 -57 30 -73 27 -136 -3
-59 -8 -79 -35 -120 -73 -112 -87 -140 -93 -178 l-5 -41 -37 57 c-50 77 -61
82 -182 74 -81 -6 -105 -4 -121 8 -20 14 -20 15 -2 68 27 76 41 95 96 122 27
14 51 31 54 39 3 8 19 17 36 20 50 10 140 57 152 78 13 25 -2 46 -34 51 -20 3
-22 8 -19 65 4 70 -26 157 -50 148 -21 -8 -47 -58 -50 -94 -1 -17 -3 -31 -4
-31 -1 0 -27 12 -58 26 -83 38 -94 31 -52 -36 46 -73 94 -105 160 -106 94 -1
95 -2 67 -24 -13 -11 -54 -30 -92 -41 -42 -13 -69 -26 -69 -35 0 -7 -13 -20
-30 -29 -16 -8 -45 -29 -63 -45 l-34 -30 -33 53 c-38 61 -48 113 -26 142 14
20 15 19 53 -17 21 -21 45 -38 53 -37 9 0 6 5 -8 11 -12 6 -32 26 -43 45 -25
40 -52 42 -76 6 -27 -41 -21 -97 17 -151 28 -40 32 -52 27 -91 -9 -74 -23
-101 -52 -101 -35 0 -68 38 -112 126 -33 68 -36 82 -41 187 -7 160 9 200 83
217 66 15 36 -27 -61 -86 -37 -22 -5 -25 40 -3 83 39 113 111 49 117 -49 5
-99 -24 -121 -68 l-19 -39 -11 35 c-9 30 -8 36 6 40 60 18 85 58 90 139 5 73
-1 78 -47 39 -35 -29 -50 -54 -62 -99 -6 -19 -6 -12 -2 20 4 28 6 66 5 85 -2
35 -46 110 -69 117 -18 6 -36 -66 -32 -125 4 -50 4 -51 -21 -44 -30 8 -78 7
-87 -2 -4 -3 7 -25 23 -49 32 -45 95 -87 131 -87 12 0 25 -5 29 -11 5 -9 -1
-10 -22 -3 -16 4 -49 8 -73 8 -34 1 -47 -4 -58 -21 -13 -19 -12 -23 8 -42 30
-28 84 -37 126 -22 19 7 38 10 41 6 4 -4 7 -30 6 -60 0 -82 -32 -117 -129
-141 l-28 -7 7 42 c7 49 -9 113 -35 137 -16 15 -19 14 -34 -16 -10 -19 -15
-48 -13 -69 l3 -37 -40 14 c-39 13 -106 10 -133 -7 -33 -20 40 -69 128 -86
l35 -6 -43 -45 c-24 -25 -41 -51 -39 -57 2 -7 23 -12 51 -11 53 0 93 24 117
71 l15 31 59 -24 c71 -29 87 -43 125 -108 65 -114 117 -139 284 -138 65 1 128
-3 138 -9 11 -6 35 -35 54 -65 27 -42 47 -60 93 -84 90 -45 120 -95 90 -153
-7 -12 -42 -53 -78 -92 -37 -38 -76 -82 -86 -97 l-20 -26 -125 6 -125 7 -6 35
c-7 46 -22 73 -59 104 -42 35 -86 41 -178 22 -136 -28 -149 -22 -163 66 -5 27
-15 61 -24 75 -22 34 -80 56 -122 48 -34 -6 -34 -6 -31 27 3 31 5 33 40 30 67
-6 105 71 58 118 -22 22 -42 25 -71 10 -16 -9 -19 -7 -19 10 0 43 -50 103
-117 144 -24 14 -34 -4 -18 -33 7 -15 14 -50 15 -77 0 -27 2 -65 3 -84 1 -24
-5 -41 -20 -57 -48 -47 -15 -117 62 -130 l38 -6 -34 -18 c-48 -26 -148 -25
-199 1 -54 27 -74 61 -67 107 10 60 -10 118 -55 158 -22 20 -45 34 -51 32 -18
-6 -14 -107 6 -146 22 -44 22 -43 -15 -36 -37 7 -120 -15 -125 -32 -7 -21 72
-53 129 -53 29 0 59 4 67 9 10 7 20 2 34 -15 10 -14 41 -36 68 -49 66 -34 143
-33 224 1 84 36 107 39 134 17 20 -17 24 -29 25 -92 1 -71 2 -73 39 -108 36
-33 42 -34 90 -29 198 20 183 21 214 -10 18 -18 23 -29 15 -32 -25 -8 -340 18
-443 37 -100 18 -163 37 -445 135 -261 90 -448 98 -758 32 -187 -39 -206 -48
-179 -78 16 -18 14 -18 -37 3 -210 84 -458 148 -677 174 -323 38 -1283 74
-1283 48 0 -6 104 -13 268 -17 278 -7 683 -28 907 -46 169 -14 281 -33 440
-75 153 -40 914 -314 1166 -420 220 -93 375 -135 525 -142 125 -6 142 1 103
44 -50 54 -391 199 -641 273 -57 17 -227 56 -378 86 -279 56 -349 72 -363 84
-10 8 337 76 433 85 79 7 227 -9 334 -36 43 -11 159 -49 257 -84 239 -86 361
-110 679 -130 l96 -7 -4 -63 c-8 -118 54 -262 130 -301 37 -19 106 -23 185
-10 l51 8 21 -40 c26 -52 60 -77 125 -96 68 -20 82 -37 107 -127 24 -85 45
-124 111 -196 41 -45 68 -101 68 -140 0 -7 -20 10 -45 36 -56 60 -115 91 -330
176 -93 36 -231 96 -305 132 -262 128 -336 150 -585 178 -277 31 -384 58 -660
170 -102 41 -222 86 -268 100 -183 55 -393 68 -692 40 -206 -19 -357 -19 -608
1 -285 23 -556 9 -837 -41 -102 -19 -248 -61 -274 -80 -34 -25 -12 -42 63 -50
74 -7 144 -4 371 20 331 35 610 29 873 -20 221 -41 291 -71 526 -224 265 -173
417 -223 951 -311 360 -60 439 -76 710 -142 l205 -50 230 -7 c262 -8 279 -12
385 -98 86 -70 90 -93 19 -115 -64 -19 -80 -48 -78 -139 3 -70 0 -84 -32 -148
-19 -38 -37 -70 -40 -70 -4 -1 -10 11 -14 26 -14 59 -35 97 -46 86 -8 -8 -5
-29 10 -75 43 -131 52 -195 52 -363 -1 -172 -12 -247 -26 -167 -13 78 -72 179
-154 263 -118 123 -129 108 -45 -62 63 -128 119 -288 130 -367 8 -66 24 -78
24 -19 0 63 -42 200 -101 330 -67 149 -67 149 -19 97 92 -98 138 -198 161
-349 7 -44 16 -81 20 -81 15 0 21 40 32 214 l11 180 18 -70 c31 -119 33 -191
9 -252 -28 -71 -93 -165 -136 -198 -19 -14 -71 -36 -114 -49 -96 -27 -140 -53
-250 -144 -85 -71 -126 -91 -191 -91 -73 0 -94 41 -69 135 14 52 88 122 206
194 109 68 132 87 149 129 20 44 1 87 -61 137 -57 48 -82 50 -116 14 -34 -37
-72 -46 -104 -25 -38 25 -33 63 15 109 45 42 51 74 20 102 -28 25 -69 23 -139
-9 -34 -15 -65 -25 -70 -21 -6 3 -1 25 11 51 23 53 19 91 -13 132 -40 52 -102
68 -132 34 -18 -20 -36 -91 -37 -144 0 -21 -5 -38 -11 -38 -6 0 -29 15 -51 34
-22 19 -53 39 -69 45 -45 16 -38 -20 11 -54 47 -33 50 -43 13 -51 -107 -23
-125 -54 -88 -146 12 -31 -25 -21 -99 27 -67 44 -87 49 -151 45 -42 -3 -62
-16 -81 -51 -20 -41 -13 -69 37 -131 22 -28 38 -54 37 -59 -2 -4 -18 -18 -37
-31 -49 -33 -57 -50 -41 -87 14 -35 55 -61 94 -61 14 0 49 9 78 20 88 33 93
28 53 -54 -45 -93 -6 -122 102 -75 42 19 60 20 148 15 55 -3 121 -13 147 -22
44 -14 49 -20 69 -72 27 -74 20 -93 -61 -158 -83 -67 -142 -174 -96 -174 8 0
76 30 150 67 127 62 141 67 218 71 45 3 125 -1 179 -8 128 -17 171 -8 354 75
191 86 215 91 395 76 156 -13 151 -14 295 39 52 19 91 23 285 31 173 6 243 13
305 28 64 17 109 21 230 20 153 -1 252 13 314 46 27 13 75 63 83 84 2 6 96 15
218 21 439 22 680 57 680 99 0 14 -57 39 -110 50 -30 6 -127 20 -215 31 -88
12 -164 25 -169 30 -15 15 38 39 205 94 312 103 773 217 1219 300 564 106 617
119 692 169 36 25 46 50 28 73 -14 16 -104 44 -222 69 -42 9 -88 25 -103 37
-24 19 -25 21 -9 39 24 27 92 36 344 49 499 24 772 78 815 159 13 26 24 30
152 55 309 61 453 108 453 146 0 23 -37 56 -93 80 -45 20 -201 70 -219 70 -13
0 -9 -28 5 -33 6 -3 -3 -8 -21 -12 -41 -9 -32 -20 12 -17 28 3 38 -2 56 -27
12 -17 20 -39 18 -49 -8 -41 -152 -54 -313 -27 -49 9 -184 20 -300 25 -257 12
-360 29 -485 80 -190 76 -334 95 -415 55 -57 -29 -58 -55 -3 -93 56 -39 139
-66 286 -93 103 -20 153 -23 412 -24 254 -1 302 -3 348 -18 47 -16 100 -52 90
-62 -7 -7 -185 -35 -283 -45 -55 -5 -197 -14 -315 -20 -303 -15 -511 -52 -644
-115 -80 -38 -92 -55 -88 -131 2 -62 1 -65 -38 -108 -23 -25 -64 -54 -98 -69
-76 -34 -250 -57 -436 -57 -158 0 -233 -14 -365 -69 -100 -42 -108 -41 -79 11
30 53 121 129 126 104 2 -10 9 -15 15 -12 143 63 132 61 297 60 97 0 169 -5
193 -13 21 -7 41 -11 43 -8 3 3 -1 19 -10 35 -17 33 -39 122 -32 129 2 3 12
-23 22 -56 18 -64 34 -80 35 -33 0 15 8 52 19 82 l18 55 1 -67 c1 -53 4 -68
16 -68 8 0 15 4 15 8 0 5 20 32 45 61 l45 53 0 -46 c0 -26 5 -46 11 -46 6 0
26 12 45 26 l34 26 0 -41 c0 -54 16 -53 23 1 4 24 9 55 13 71 9 38 -5 34 -62
-15 -26 -24 -45 -36 -42 -27 3 9 9 42 13 75 l6 59 -28 -30 c-15 -17 -48 -53
-72 -80 l-43 -50 7 88 c5 59 3 87 -4 87 -14 0 -40 -51 -61 -117 l-16 -53 -33
107 c-36 119 -55 127 -41 18 5 -38 9 -82 10 -98 0 -27 0 -27 -29 -12 -22 11
-37 12 -56 5 -44 -17 -52 -12 -58 31 -7 50 -27 73 -64 74 -26 0 -28 3 -33 50
-4 42 -8 50 -27 53 -17 3 -29 -7 -50 -39 -35 -52 -69 -89 -83 -89 -6 0 -10 36
-10 96 0 52 -5 115 -11 140 -13 52 -51 86 -88 82 -29 -3 -30 -9 -16 -138 8
-71 -5 -120 -30 -120 -8 0 -26 18 -40 40 -28 45 -44 49 -70 21 -17 -20 -18
-20 -42 10 -45 53 -94 30 -129 -61 -23 -61 -26 -63 -72 -49 -86 25 -111 60
-151 206 -19 69 -53 100 -134 123 -40 12 -95 27 -123 35 -59 17 -97 53 -92 87
5 34 77 66 178 79 106 13 175 7 370 -36 216 -47 305 -59 374 -51 83 11 106 36
106 116 0 51 26 239 35 248 1 1 7 -24 14 -56 10 -50 9 -69 -9 -137 -30 -115
-20 -131 92 -141 35 -3 101 -19 148 -35 134 -46 262 -70 410 -76 111 -4 139
-2 155 10 20 15 20 15 0 37 -27 30 -78 55 -156 77 -53 14 -103 18 -286 18
-220 0 -222 1 -247 24 -36 34 -44 68 -49 209 l-4 123 61 -6 c124 -13 292 -37
382 -55 271 -56 536 -90 704 -90 63 0 132 -5 153 -11 52 -14 98 -58 136 -129
18 -33 37 -60 43 -60 7 0 9 23 6 65 l-4 66 33 -53 c35 -56 60 -76 48 -39 -10
32 -1 26 29 -19 33 -50 52 -51 60 -2 9 54 7 132 -3 132 -9 0 -21 -57 -21 -103
0 -37 -14 -27 -50 36 -18 33 -32 74 -36 110 -4 31 -10 60 -14 62 -13 8 -19
-48 -10 -95 l8 -45 -18 25 c-10 14 -25 34 -33 44 -25 34 -36 11 -21 -47 20
-77 17 -88 -12 -37 -34 60 -52 78 -99 103 -35 18 -64 21 -222 26 -100 4 -184
9 -188 12 -5 6 26 40 74 82 20 16 22 16 41 -3 24 -24 39 -25 85 -6 76 32 73
131 -6 159 -9 3 -19 19 -22 35 -3 16 -13 37 -22 46 -22 21 -102 22 -126 0 -24
-22 -59 -10 -59 21 0 14 -14 41 -32 61 -18 20 -34 46 -35 57 -7 46 -63 50 -95
7 -27 -38 -42 -38 -85 0 -51 45 -119 37 -145 -17 -20 -41 -47 -36 -77 15 -14
24 -37 50 -51 58 -37 20 -113 18 -141 -4 -13 -10 -43 -29 -67 -42 -70 -39 -96
-98 -70 -155 9 -21 9 -31 0 -46 -18 -28 -15 -53 11 -76 46 -42 100 -56 125
-31 8 8 20 2 49 -26 l38 -38 -30 6 c-16 3 -75 10 -130 17 -55 6 -125 14 -155
18 l-55 6 -39 68 c-32 55 -40 80 -44 135 -9 137 31 210 173 318 40 29 83 70
97 91 13 21 41 64 61 95 53 82 70 91 201 99 77 5 128 14 168 29 64 25 88 18
88 -26 0 -22 35 -52 48 -40 3 3 0 6 -6 6 -7 0 -15 18 -18 41 -10 60 -34 72
-104 54 -63 -17 -146 -20 -155 -5 -3 6 4 10 16 10 13 0 43 10 67 21 52 26 81
77 63 115 -10 22 -62 44 -105 44 -31 0 -77 -35 -139 -105 -47 -53 -64 -65 -88
-65 -78 0 -89 45 -32 127 30 44 41 53 66 53 32 0 97 27 97 41 0 4 20 28 45 53
39 40 45 52 45 89 0 49 31 107 58 107 10 0 34 -16 53 -36 42 -44 60 -54 124
-68 82 -18 68 -55 -21 -56 -56 0 -103 -74 -54 -87 11 -3 20 -11 20 -18 0 -21
31 -75 43 -75 7 0 18 -14 26 -31 9 -20 26 -36 50 -45 63 -25 101 -47 101 -58
0 -7 -13 -17 -29 -23 -16 -6 -41 -29 -55 -51 -14 -22 -31 -42 -38 -45 -7 -3
-2 -6 12 -6 18 0 32 11 51 38 18 25 37 40 58 44 66 13 27 82 -63 113 -38 13
-46 20 -44 38 2 13 -2 21 -12 21 -8 0 -18 8 -22 18 -4 9 -14 17 -23 17 -9 0
-15 9 -15 25 0 15 -11 36 -26 50 -14 13 -23 28 -20 33 3 5 29 12 57 15 55 7
89 29 89 57 0 26 -20 38 -80 51 -40 8 -65 22 -99 54 -25 23 -54 45 -64 48 -25
9 -63 -11 -77 -42 l-13 -26 -8 25 c-4 14 -5 53 -2 88 5 51 3 66 -12 82 -19 21
-69 27 -94 11 -11 -7 -19 -1 -31 22 -25 46 -58 55 -127 33 l-57 -18 -35 41
c-51 59 -79 57 -148 -14 -29 -30 -53 -61 -53 -69 0 -29 -36 -21 -91 21 -64 50
-98 55 -127 19 -17 -22 -19 -42 -19 -171 l0 -146 -33 -28 c-39 -32 -37 -59 6
-110 14 -17 22 -31 17 -31 -16 0 -109 28 -145 44 -56 24 -53 63 8 128 41 43
45 53 40 81 -10 49 -52 105 -103 138 -54 33 -101 37 -133 11 -19 -16 -23 -29
-29 -94 -1 -4 -20 -8 -43 -10 -36 -2 -45 -8 -56 -31 -13 -27 -11 -34 18 -89
17 -33 29 -67 26 -74 -8 -20 -67 -17 -117 6 -24 11 -60 20 -80 20 -85 0 -249
-75 -249 -115 0 -8 5 -24 12 -34 18 -29 4 -48 -69 -95 -122 -79 -143 -122
-104 -212 l22 -50 -20 -45 c-55 -120 11 -173 145 -118 29 12 59 19 67 16 8 -3
21 -23 27 -44 22 -68 69 -103 140 -103 64 0 53 -27 -49 -131 l-89 -90 -168 33
-169 34 -6 64 c-4 36 -18 105 -33 155 -30 102 -29 116 20 224 38 84 40 91 19
91 -21 0 -91 -112 -112 -179 -17 -52 -17 -54 6 -115 12 -33 25 -73 28 -88 5
-27 23 -40 23 -16 0 30 14 -8 26 -69 8 -45 9 -75 2 -92 -15 -41 -12 -249 5
-301 8 -25 31 -70 51 -100 46 -68 44 -97 -12 -172 -49 -65 -104 -174 -100
-196 2 -10 21 14 47 58 24 41 61 100 83 132 44 65 50 114 18 166 -20 32 -20
32 0 32 11 0 43 -12 70 -26 52 -27 78 -26 114 5 32 28 46 76 46 163 0 58 5 92
16 113 9 17 23 42 31 58 8 15 20 27 26 27 6 0 48 38 94 85 114 116 111 144
-17 170 -43 9 -77 39 -85 75 -7 32 -40 70 -60 70 -8 0 -38 -9 -66 -21 -69 -27
-123 -23 -127 10 -3 18 18 85 34 109 1 2 18 -13 37 -34 24 -26 39 -35 51 -31
15 6 13 12 -17 39 -19 18 -37 40 -40 48 -5 13 -7 13 -16 0 -5 -8 -11 -12 -13
-10 -10 14 -38 108 -38 129 0 28 56 85 122 123 65 37 85 70 70 112 -14 36 -10
41 72 83 70 36 148 41 222 15 32 -11 85 -25 116 -31 91 -16 145 -49 173 -105
6 -12 23 -23 40 -26 17 -3 49 -16 71 -29 62 -35 107 -129 80 -166 -19 -26 -78
-12 -125 31 -21 19 -48 34 -60 34 -49 0 -87 -129 -56 -190 18 -34 66 -60 113
-60 18 0 38 -10 54 -27 29 -31 88 -140 88 -162 0 -8 14 -38 30 -68 20 -35 30
-67 30 -94 0 -34 7 -49 43 -89 24 -27 53 -71 65 -99 l21 -51 -25 0 c-91 0
-789 122 -809 141 -6 6 39 55 121 133 116 111 131 130 142 173 16 62 17 100 7
196 l-8 77 30 0 c52 0 67 37 38 93 -14 28 -13 29 40 81 58 56 67 84 40 122
-24 36 -77 54 -154 54 -87 0 -164 -27 -221 -78 -37 -33 -43 -44 -47 -88 -4
-41 0 -63 22 -113 23 -50 25 -64 15 -76 -19 -23 -25 -19 -64 35 -28 38 -44 51
-78 60 -70 19 -158 -16 -158 -63 0 -18 2 -18 24 6 26 28 81 43 123 32 16 -3
49 -27 75 -52 45 -44 48 -46 78 -33 17 7 32 11 33 9 2 -2 19 -24 39 -49 53
-67 68 -103 68 -162 0 -37 -8 -68 -27 -105 -14 -29 -23 -56 -20 -59 9 -9 46
37 47 57 0 8 7 24 15 35 8 11 14 41 15 72 0 59 -22 112 -76 179 -19 23 -34 44
-34 47 0 3 11 6 25 6 13 0 28 8 34 18 8 14 12 15 22 5 7 -7 28 -13 46 -13 26
0 36 5 42 23 6 14 5 23 -2 26 -6 2 -13 -1 -15 -7 -5 -17 -38 -15 -73 4 -47 24
-83 15 -89 -21 l-6 -30 -27 52 c-37 71 -37 140 -1 176 55 55 177 93 258 81 46
-8 96 -30 96 -43 0 -5 3 -16 6 -24 3 -10 -16 -36 -55 -74 -45 -42 -62 -66 -65
-89 -2 -17 -6 -37 -11 -43 -21 -35 -34 -116 -25 -162 6 -32 6 -69 -1 -106 -6
-32 -12 -70 -13 -85 -1 -15 -4 -29 -7 -31 -2 -1 -23 -15 -46 -30 -55 -35 -223
-203 -223 -223 0 -8 -7 -17 -15 -20 -33 -13 -55 -88 -61 -205 -9 -174 -10
-176 -127 -287 -179 -171 -205 -198 -212 -230 -3 -17 -13 -33 -21 -36 -18 -7
-18 -40 0 -55 12 -10 15 -8 18 10 3 21 8 23 113 25 127 3 155 -6 251 -79 37
-28 89 -55 139 -73 129 -44 167 -63 228 -111 32 -25 73 -49 91 -53 41 -9 78 4
70 25 -5 11 0 15 18 15 30 0 53 24 62 65 18 74 74 102 98 50 13 -29 43 -33 69
-9 15 14 18 12 38 -20 65 -105 142 -4 111 145 -14 65 -11 74 18 65 31 -10 42
-51 42 -159 0 -114 5 -143 27 -151 24 -10 67 20 91 62 12 22 29 45 37 52 13
11 15 7 15 -27 0 -47 14 -63 56 -63 34 0 44 -13 44 -56 0 -34 17 -64 37 -64 9
0 32 6 51 12 33 12 35 11 68 -25 40 -43 44 -61 12 -54 -13 3 -73 9 -133 12
-120 8 -203 -3 -267 -36 -46 -24 -47 -24 -41 1 3 11 2 20 -1 20 -19 0 -117
-73 -154 -115 -39 -44 -63 -107 -48 -122 8 -8 49 3 186 53 104 37 107 38 309
46 310 12 435 40 523 117 49 43 72 93 64 143 -8 51 5 73 64 103 132 67 314 99
690 120 151 8 333 24 404 35 71 11 131 20 134 20 3 0 -3 -9 -14 -21 -25 -28
-67 -44 -176 -68 -164 -35 -314 -49 -804 -75 -98 -6 -162 -29 -170 -62 -14
-56 20 -78 174 -115 181 -43 197 -52 147 -85 -53 -34 -162 -65 -353 -99 -479
-86 -1002 -201 -1302 -286 -214 -61 -409 -130 -450 -160 -40 -29 -41 -31 -25
-49 20 -22 74 -34 250 -55 300 -37 293 -58 -27 -90 -141 -13 -480 -35 -555
-35 -32 0 -33 1 -33 41 0 48 -19 119 -32 119 -10 0 -9 -19 1 -85 5 -27 6 -55
4 -62 -7 -17 -314 -16 -623 1 -225 13 -236 16 -84 20 100 2 123 16 159 91 52
111 102 178 152 205 43 23 73 54 155 160 21 28 29 33 39 23 19 -19 95 -15 167
7 80 25 117 26 108 4 -16 -42 -17 -62 -3 -67 11 -4 16 7 21 45 4 29 3 55 -3
61 -6 6 -37 3 -88 -8 -43 -10 -105 -20 -138 -22 -57 -3 -59 -3 -35 11 14 9 37
15 51 16 15 0 40 12 57 28 l30 28 -3 129 -2 129 -32 28 c-37 33 -80 37 -105 9
-10 -10 -23 -42 -31 -71 -17 -63 -29 -78 -80 -100 -22 -10 -59 -35 -82 -58
l-41 -40 -4 -115 c-2 -96 -6 -118 -22 -136 -18 -20 -18 -22 -2 -40 17 -18 17
-20 -2 -30 -18 -9 -20 -6 -25 42 -4 34 -2 66 8 92 17 48 19 126 4 180 -6 22
-31 66 -54 97 -38 50 -43 62 -38 96 4 31 0 44 -21 69 -48 57 -29 75 72 66 89
-7 99 -19 82 -97 -14 -68 -7 -83 38 -89 39 -4 62 6 62 30 0 10 -4 11 -19 3
-11 -5 -30 -10 -42 -10 -20 0 -21 3 -14 47 20 118 6 137 -111 147 -69 5 -81 4
-97 -13 -26 -25 -25 -67 2 -95 11 -12 21 -32 21 -44 l0 -21 -42 19 c-53 24
-140 27 -158 5 -11 -13 -4 -15 51 -15 87 0 123 -20 186 -105 64 -86 80 -140
63 -220 l-12 -57 -26 24 c-15 14 -48 37 -74 52 -57 32 -74 54 -94 128 -16 54
-38 88 -50 75 -6 -6 28 -112 50 -156 10 -19 44 -49 86 -76 38 -24 77 -56 86
-70 23 -35 16 -140 -12 -180 -11 -17 -28 -52 -38 -78 -10 -27 -28 -60 -41 -75
-21 -25 -29 -27 -141 -33 -66 -4 -143 -12 -173 -19 -91 -21 -195 4 -243 57
-16 17 -16 29 -7 109 15 137 28 212 50 293 29 108 6 113 -26 6 -15 -49 -42
-205 -47 -275 -2 -24 -10 4 -25 85 -13 66 -24 133 -25 149 -4 46 -25 42 -31
-6 -3 -24 -11 -74 -17 -112 -7 -37 -10 -81 -8 -97 3 -16 3 -29 1 -29 -1 0 -13
19 -25 42 -34 64 -30 170 15 393 37 188 57 258 126 438 51 132 64 197 51 247
-11 40 -44 78 -54 61 -4 -5 -2 -12 4 -16 5 -3 14 -23 20 -44 14 -54 -3 -132
-60 -276 -26 -66 -57 -154 -68 -195 -36 -130 -84 -402 -86 -480 -2 -111 17
-150 123 -253 110 -108 152 -129 270 -132 47 -1 205 -10 351 -19 146 -9 343
-16 438 -16 94 0 172 -4 172 -9 0 -18 -71 -71 -111 -81 -70 -19 -209 -30 -304
-24 -77 5 -105 2 -195 -21 -89 -22 -138 -28 -320 -35 -205 -7 -219 -9 -300
-39 -93 -34 -140 -37 -279 -21 -141 16 -229 -6 -437 -108 -33 -17 -78 -35
-100 -41 -44 -12 -174 -15 -173 -3 1 18 156 104 222 122 106 29 170 65 221
121 63 70 78 124 75 257 -3 81 1 122 15 167 12 41 20 115 25 230 7 169 8 170
43 240 20 39 47 86 60 105 13 19 54 79 91 133 37 54 67 93 67 88 0 -33 -34
-172 -64 -260 -24 -69 -37 -130 -41 -185 -4 -44 -22 -141 -41 -214 -43 -168
-46 -261 -10 -339 28 -58 49 -73 146 -98 72 -19 118 -14 168 17 18 11 36 18
39 14 3 -3 8 -48 11 -101 3 -60 9 -94 15 -92 11 3 11 114 0 177 -9 53 -19 67
-113 166 -92 97 -140 176 -140 232 0 18 11 78 25 133 14 55 30 151 34 212 5
62 14 125 20 140 6 15 42 75 80 132 38 57 79 129 90 160 26 68 27 152 4 226
-9 30 -16 73 -14 95 2 32 -6 59 -32 110 -21 41 -42 104 -52 154 -31 156 -67
210 -143 210 -40 0 -43 2 -37 23 17 54 48 86 210 211 21 16 46 49 57 73 14 32
24 43 36 39 9 -2 40 -7 67 -11 111 -14 846 -132 876 -141 29 -8 31 -66 8 -164
-12 -51 -19 -113 -17 -141 2 -41 0 -48 -12 -43 -212 83 -547 153 -670 139
-122 -14 -156 -46 -75 -71 273 -85 475 -126 697 -141 89 -5 97 -8 107 -30 22
-49 13 -103 -28 -167 -21 -34 -44 -79 -51 -101 -27 -85 -76 -121 -178 -131
-69 -8 -139 6 -282 53 -129 43 -230 53 -294 29 -45 -17 -84 -51 -73 -63 4 -3
60 -5 125 -4 81 1 154 -5 237 -19 132 -23 327 -37 368 -26 50 12 94 62 118
134 25 76 51 118 78 127 19 6 36 33 26 43 -3 3 -15 -3 -26 -14 l-22 -19 17 33
c19 37 23 109 8 138 -44 81 -52 160 -26 271 14 63 15 108 0 191 -9 53 -34 91
-112 173 -64 67 -74 83 -74 114 0 20 -4 34 -9 31 -4 -3 -17 5 -28 17 -37 41
-37 48 1 30 20 -9 36 -20 36 -25 0 -4 5 -8 10 -8 6 0 10 20 10 45 0 48 -23 64
-35 24 -6 -19 -8 -20 -26 -4 -10 10 -25 15 -34 12 -22 -9 -18 -43 10 -85 14
-20 25 -40 25 -44 0 -16 -29 -7 -58 17 -30 25 -72 34 -72 15 0 -19 75 -60 111
-60 27 0 39 -6 48 -23 7 -13 40 -50 73 -83 33 -32 69 -77 79 -99 10 -22 17
-40 16 -41 -1 -1 -90 13 -197 31 -107 19 -319 52 -470 75 -151 23 -277 44
-279 46 -2 2 4 12 13 23 18 20 44 31 113 50 51 14 83 52 83 97 0 48 20 135 38
166 18 30 51 48 91 48 46 0 116 29 147 61 16 16 47 67 69 112 l40 82 93 -3
c104 -3 114 1 183 65 l47 43 34 -34 c54 -54 168 -72 168 -27 0 20 -30 67 -55
85 -16 12 -14 14 22 19 22 4 51 15 64 26 20 16 21 21 10 35 -8 9 -28 16 -47
16 -32 0 -33 1 -24 26 6 14 10 32 10 41 0 26 -68 9 -104 -26 l-31 -30 -3 41
c-1 22 -8 50 -14 61 -11 20 -11 20 -34 -6 -45 -52 -51 -115 -21 -197 3 -10
-14 -32 -50 -64 l-56 -48 -51 8 c-28 5 -70 8 -93 8 -24 0 -43 2 -43 3 0 1 9
17 20 35 29 48 26 97 -10 146 l-30 42 45 0 c48 0 115 22 115 38 0 17 -70 72
-91 72 -20 0 -20 0 2 31 22 31 36 105 26 133 -15 38 -146 -57 -148 -106 0 -16
-7 -7 -24 30 -27 59 -49 74 -70 46 -37 -50 -24 -147 26 -197 35 -35 36 -70 2
-75 -36 -5 -62 16 -73 58 -13 48 -49 77 -78 61 -11 -6 -31 -35 -46 -66 -19
-42 -37 -63 -73 -85 -92 -59 -113 -50 -113 45 0 69 -25 119 -70 142 -33 17
-50 -5 -50 -65 0 -51 11 -75 56 -122 31 -32 35 -43 40 -114 5 -57 13 -87 30
-112 48 -71 56 -94 49 -144 -4 -28 -2 -72 5 -103 11 -46 10 -62 -4 -104 -21
-63 -50 -90 -154 -143 -47 -24 -95 -57 -111 -77 l-28 -34 -69 10 c-38 6 -116
16 -174 22 -58 6 -107 12 -109 14 -2 2 23 35 55 72 67 79 93 134 101 208 6 59
11 51 -91 143 -47 43 -46 65 9 166 24 45 52 111 61 146 21 87 36 107 86 121
52 14 86 36 159 107 88 84 105 93 148 77 50 -17 170 -37 181 -30 20 12 9 34
-34 72 l-44 38 31 26 c37 31 32 57 -13 65 -30 6 -30 7 -24 60 10 84 -21 138
-66 114 -36 -19 -88 -91 -105 -146 -18 -58 -15 -134 6 -160 8 -9 4 -16 -13
-25 -13 -6 -42 -27 -66 -46 -24 -20 -45 -33 -47 -31 -3 2 4 30 15 61 23 64 25
100 9 146 -14 40 -32 39 -65 -4 -35 -46 -43 -119 -20 -167 l17 -33 -34 -32
c-35 -31 -134 -62 -157 -48 -15 9 -58 88 -60 110 -5 46 2 64 44 113 61 72 65
95 30 215 -5 15 -1 17 20 11 54 -13 153 41 177 97 10 26 10 32 -2 40 -14 10
-80 6 -112 -7 -15 -5 -16 -3 -7 21 11 29 14 124 4 149 -8 22 -16 20 -47 -11z
m33 -46 c0 -41 -15 -93 -36 -126 l-18 -26 -7 27 c-12 47 24 158 52 158 5 0 9
-15 9 -33z m-183 -44 c36 -26 77 -91 89 -138 7 -29 6 -28 -43 20 -56 56 -87
98 -98 134 -8 26 -3 25 52 -16z m281 -105 c-23 -36 -78 -68 -114 -68 -19 0
-34 3 -34 6 0 34 78 83 134 84 27 0 28 -1 14 -22z m-245 -48 c39 -20 45 -26
31 -33 -28 -16 -118 -3 -152 22 -18 12 -32 27 -32 33 0 18 102 3 153 -22z
m-760 -25 c27 -57 18 -158 -11 -123 -22 27 -33 74 -27 116 3 23 10 42 14 42 4
0 15 -16 24 -35z m1330 -48 c11 -44 -9 -91 -40 -95 -26 -4 -47 -27 -38 -42 8
-13 41 -13 66 1 11 6 34 7 51 4 l30 -7 -28 -19 c-17 -11 -47 -19 -70 -19 -24
0 -47 -6 -54 -15 -20 -24 -2 -37 44 -30 38 6 46 3 87 -30 l44 -38 -45 7 c-64
10 -142 36 -162 54 -25 21 -23 104 3 162 22 49 77 112 93 107 6 -2 14 -20 19
-40z m-1218 -93 c-19 -50 -55 -79 -55 -45 0 30 19 73 43 99 19 21 22 21 25 7
2 -10 -4 -37 -13 -61z m-186 11 c31 -15 85 -74 77 -82 -17 -17 -136 62 -136
89 0 13 28 9 59 -7z m1378 -41 c-3 -3 -12 -4 -19 -1 -8 3 -5 6 6 6 11 1 17 -2
13 -5z m-234 -51 c5 -26 -14 -104 -32 -132 -14 -21 -32 52 -21 87 9 32 32 72
41 72 4 0 9 -12 12 -27z m-489 -105 c-8 -52 -18 -54 -39 -8 -19 41 -16 90 7
118 11 12 15 8 26 -29 7 -24 10 -61 6 -81z m3237 61 c35 -45 23 -43 152 -23
41 7 67 -7 67 -36 0 -10 7 -23 16 -31 13 -10 20 -10 45 5 57 34 93 -7 69 -79
-9 -28 -9 -43 0 -65 8 -19 9 -34 2 -46 -6 -11 -6 -26 1 -44 8 -22 7 -33 -6
-53 -14 -21 -25 -25 -88 -29 -64 -5 -76 -9 -94 -32 -27 -34 -35 -25 -35 39 0
76 -16 85 -84 52 -34 -17 -66 -42 -86 -69 -27 -38 -30 -39 -25 -16 10 39 -17
47 -57 18 -36 -26 -43 -21 -43 33 l0 41 -62 2 c-61 1 -63 1 -82 -32 -21 -35
-50 -44 -69 -21 -11 13 -15 303 -5 340 8 31 54 21 101 -23 28 -27 51 -40 70
-40 34 0 43 7 70 52 23 37 86 98 102 98 4 0 23 -18 41 -41z m-3836 -9 c23 -9
26 -13 15 -20 -23 -15 -84 -12 -106 5 -16 13 -17 16 -4 25 16 11 48 8 95 -10z
m1905 -41 c-11 -41 -77 -119 -100 -119 -14 0 0 72 19 100 19 26 81 73 88 66 2
-2 -1 -24 -7 -47z m-1430 11 c38 -20 68 -56 55 -68 -9 -10 -57 23 -84 57 -28
36 -24 38 29 11z m1269 -55 c6 -24 11 -60 11 -81 0 -32 -2 -35 -16 -23 -37 30
-53 91 -38 147 9 32 29 12 43 -43z m-1865 -47 c3 -13 6 -41 6 -63 -1 -37 -2
-39 -15 -21 -8 11 -15 39 -15 63 0 46 14 58 24 21z m3313 2 c39 -23 93 -95 93
-123 0 -11 -20 -42 -45 -68 -63 -67 -62 -100 4 -162 49 -46 80 -59 173 -72 61
-8 72 -26 63 -109 -8 -76 5 -109 65 -156 50 -40 70 -77 70 -131 l0 -42 -37 6
c-21 4 -68 27 -105 53 -78 53 -112 55 -47 2 73 -59 134 -90 171 -86 29 3 34 7
38 38 l5 34 13 -27 c6 -16 12 -37 12 -49 0 -24 -37 -93 -66 -123 -11 -11 -32
-51 -45 -88 -13 -37 -27 -67 -31 -67 -5 0 -8 37 -8 83 0 70 4 88 25 122 30 50
32 64 4 39 -38 -34 -59 -93 -59 -171 0 -61 4 -77 21 -94 11 -11 25 -19 31 -17
6 2 18 29 28 59 20 67 65 153 102 197 15 18 28 44 28 58 0 13 -18 60 -40 104
-42 83 -46 95 -31 86 5 -3 20 11 33 32 14 20 60 75 102 122 42 46 80 98 85
115 6 20 9 23 10 10 1 -42 -41 -110 -114 -180 -66 -65 -75 -78 -75 -110 0 -70
53 -135 110 -135 52 0 98 34 147 109 44 66 81 111 94 111 4 0 -6 -14 -21 -30
-16 -17 -40 -52 -55 -78 -47 -81 -75 -112 -151 -168 -41 -30 -74 -61 -74 -69
0 -8 -13 -24 -30 -36 -83 -62 -91 -256 -15 -374 19 -31 35 -58 35 -60 0 -3 12
-24 27 -46 24 -36 27 -53 33 -159 6 -116 11 -136 49 -167 13 -11 12 -13 -6
-13 -37 0 -83 21 -83 38 0 10 7 42 15 72 25 93 16 190 -21 231 -24 26 -44 13
-44 -30 0 -20 -7 -74 -15 -121 -8 -47 -15 -106 -15 -131 0 -73 -20 -84 -144
-83 -79 0 -136 9 -266 38 -118 27 -199 40 -285 44 -106 6 -113 7 -60 12 87 9
218 -4 411 -40 250 -47 280 -39 315 86 24 88 24 172 0 232 -10 26 -30 76 -45
112 -15 36 -47 89 -71 117 -31 35 -45 60 -45 80 0 22 2 25 10 13 8 -12 10 -11
10 6 0 12 -12 39 -27 60 -32 47 -63 125 -63 158 0 27 -61 112 -78 109 -13 -3
-37 26 -28 34 4 4 11 1 16 -7 5 -8 12 -11 16 -7 10 9 -15 37 -34 37 -8 0 -20
-7 -27 -16 -16 -23 -79 -11 -100 19 -19 27 -19 77 -1 122 18 42 31 44 71 6 31
-30 82 -51 121 -51 60 0 74 85 25 161 -30 48 -114 109 -149 109 -14 0 -27 11
-37 30 -19 36 -86 77 -143 86 -31 5 -40 10 -33 17 18 18 12 60 -14 102 -14 22
-25 48 -25 57 0 22 30 38 68 38 32 0 42 14 42 59 0 15 5 32 12 39 18 18 69 14
105 -8z m-2136 -34 c-12 -13 -49 -33 -80 -45 -80 -29 -104 -56 -120 -132 -7
-35 -34 -104 -62 -157 -27 -51 -49 -102 -49 -113 0 -36 28 -76 80 -113 43 -31
50 -41 50 -69 0 -69 -28 -130 -98 -214 -99 -119 -125 -176 -130 -283 -5 -101
12 -151 60 -176 66 -34 115 5 63 49 -97 81 -90 69 -89 144 0 48 7 80 22 108
l20 41 178 -18 c98 -10 180 -21 182 -23 13 -12 -38 -61 -113 -110 -97 -63
-125 -103 -125 -184 0 -43 5 -55 35 -86 33 -36 34 -38 23 -83 -21 -92 16 -165
124 -245 79 -58 122 -103 146 -154 14 -29 14 -36 -1 -75 -13 -32 -96 -160
-121 -185 -1 -2 -2 43 -2 100 1 160 -14 206 -90 289 -63 69 -82 110 -108 229
-9 41 -51 75 -114 93 -61 17 -89 39 -116 93 -20 40 -45 48 -107 33 -63 -15
-133 -8 -168 17 -68 51 -98 136 -105 295 -2 59 -7 112 -11 118 -3 5 -20 17
-37 26 -31 16 -77 16 -190 -2 -21 -4 -49 -3 -63 0 -32 8 -57 57 -52 104 l3 37
8 -33 c11 -41 49 -72 90 -72 17 1 58 7 91 15 77 19 109 19 150 -1 61 -28 70
-54 70 -190 0 -116 1 -122 30 -170 19 -30 44 -56 66 -67 32 -15 40 -16 83 -3
27 8 54 12 61 10 22 -9 30 18 30 106 1 111 22 154 124 262 43 46 86 98 95 117
35 68 -7 146 -101 187 -41 19 -59 34 -87 78 -19 30 -45 60 -58 67 -15 8 -70
13 -153 13 -169 1 -194 15 -278 147 -28 46 -46 62 -91 83 -30 14 -60 26 -67
26 -22 0 3 17 43 30 21 6 47 23 57 37 l20 25 5 -24 c3 -12 8 -40 11 -60 9 -56
71 -173 111 -207 35 -31 86 -42 99 -20 5 7 14 4 27 -8 17 -15 35 -18 124 -15
62 2 112 -2 124 -8 12 -6 34 -32 50 -58 16 -26 38 -53 50 -60 23 -14 44 -7 37
12 -12 31 15 111 53 161 64 83 84 137 77 211 l-6 63 23 -10 c35 -16 126 13
168 54 37 37 64 31 29 -7z m239 -25 c6 -14 14 -48 17 -76 l5 -50 -35 36 c-34
36 -57 105 -42 128 9 15 41 -7 55 -38z m626 13 c54 -26 42 -45 -29 -46 -45 -1
-87 9 -87 20 0 9 51 40 68 41 8 1 29 -6 48 -15z m-301 -46 c15 -55 46 -82 96
-83 42 -1 42 -1 85 -80 47 -86 50 -95 33 -95 -29 0 -67 -43 -88 -100 -30 -81
-52 -95 -156 -95 -44 -1 -87 -4 -96 -8 -13 -7 -18 0 -23 33 -7 47 -35 106 -78
166 -41 57 -35 81 27 121 79 51 112 81 120 111 10 41 34 74 53 70 9 -2 21 -19
27 -40z m-1816 8 c15 -8 33 -21 39 -29 10 -12 8 -14 -15 -10 -72 11 -123 26
-134 39 -10 12 -4 14 35 14 26 0 59 -6 75 -14z m2388 -55 c-3 -33 -10 -67 -15
-77 -17 -30 -27 49 -13 97 18 61 35 49 28 -20z m-363 -9 c37 -54 49 -93 37
-125 -6 -15 -12 -27 -14 -27 -2 0 -21 27 -41 59 -26 43 -36 70 -36 100 0 49
16 47 54 -7z m491 18 c-8 -25 -40 -56 -78 -76 l-28 -15 15 29 c16 31 85 96 93
88 3 -2 2 -14 -2 -26z m-2435 -44 c0 -21 -58 -66 -85 -66 -34 0 -23 20 27 53
48 31 58 33 58 13z m2475 -31 c-16 -8 -38 -14 -49 -15 -15 0 -16 3 -6 15 7 9
28 15 49 14 l36 -1 -30 -13z m1579 -21 c3 -9 6 -29 6 -46 0 -23 -4 -29 -15
-24 -28 11 -15 -14 20 -36 41 -27 43 -37 11 -75 -55 -66 -59 -102 -17 -144 31
-31 67 -37 104 -17 12 6 56 46 98 90 84 86 114 101 72 36 -54 -87 -85 -117
-140 -138 -93 -35 -110 -47 -158 -121 -93 -139 -155 -165 -205 -85 -38 62 -29
90 55 175 91 91 110 135 118 272 4 52 9 103 13 112 8 21 30 22 38 1z m-2586
-23 c-7 -9 -14 -18 -15 -20 -2 -2 -3 8 -3 22 0 20 4 25 15 21 13 -5 13 -9 3
-23z m2292 -11 c0 -62 41 -79 84 -37 l24 24 -2 -31 c-2 -47 25 -43 57 9 31 49
56 71 43 39 -4 -10 -12 -48 -17 -84 -15 -102 -24 -120 -105 -205 -42 -44 -83
-93 -91 -108 -12 -24 -16 -27 -30 -15 -27 22 -53 90 -53 141 0 68 -21 110 -74
146 -51 35 -96 89 -96 115 0 24 30 33 42 13 25 -45 89 -43 113 3 12 24 20 27
59 26 46 -1 46 -1 46 -36z m-1329 -31 c34 -36 36 -49 10 -49 -43 0 -121 47
-121 72 0 4 18 8 41 8 33 0 47 -6 70 -31z m1829 2 c0 -23 -54 -51 -96 -51 -54
0 -60 24 -11 45 36 16 107 20 107 6z m-4441 -55 c21 -26 31 -50 31 -72 0 -33
21 -47 35 -24 11 18 54 11 65 -11 18 -32 -11 -69 -54 -69 -41 0 -60 -20 -54
-60 4 -27 2 -30 -23 -30 -85 0 -108 57 -44 106 39 30 44 53 16 78 -14 13 -20
34 -23 76 -3 66 3 67 51 6z m1731 -145 c5 -20 10 -48 10 -62 0 -38 19 -51 50
-34 16 9 58 14 114 15 l89 0 35 38 36 37 -20 -33 c-26 -46 -67 -68 -146 -82
-110 -19 -139 -54 -161 -194 -8 -47 -20 -92 -26 -100 -7 -8 -38 -21 -69 -27
-61 -14 -122 -59 -122 -89 0 -10 -6 -25 -14 -32 -7 -8 -20 -28 -29 -44 -9 -17
-46 -53 -84 -81 -84 -62 -160 -142 -169 -177 -3 -15 -4 -39 -1 -54 l5 -27 -29
33 c-40 45 -45 75 -23 130 16 39 32 55 99 99 89 59 135 104 135 132 0 28 70
86 152 127 86 43 113 65 139 117 21 40 22 61 16 220 -4 91 -7 102 -40 155 -52
86 -55 117 -3 38 25 -38 50 -85 56 -105z m2427 102 c-3 -10 -5 -4 -5 12 0 17
2 24 5 18 2 -7 2 -21 0 -30z m-2070 -53 c-23 -56 -33 -61 -16 -9 11 31 27 59
34 59 2 0 -6 -22 -18 -50z m-2426 8 c16 -22 24 -50 27 -92 l4 -61 -33 50 c-32
50 -52 135 -31 135 6 0 21 -14 33 -32z m4138 -4 c16 -20 21 -41 21 -84 0 -40
7 -71 25 -105 13 -27 23 -51 21 -52 -2 -2 -17 12 -35 32 -29 34 -31 40 -31
120 0 75 -2 85 -22 99 -12 9 -17 16 -11 16 6 0 21 -12 32 -26z m809 14 c32
-32 3 -79 -65 -104 -63 -22 -64 -17 -17 51 46 66 60 75 82 53z m-4979 -154
c17 -4 31 -10 31 -14 0 -14 -63 -20 -102 -10 -73 20 -12 40 71 24z m4861 -14
c11 -7 1 -10 -35 -10 -36 0 -46 3 -35 10 8 5 24 10 35 10 11 0 27 -5 35 -10z
m-1150 -59 c0 -20 -13 -35 -23 -25 -7 8 4 44 14 44 5 0 9 -9 9 -19z m-192 -2
c-2 -6 -8 -10 -13 -10 -5 0 -11 4 -13 10 -2 6 4 11 13 11 9 0 15 -5 13 -11z
m501 -251 c6 -16 8 -28 6 -28 -4 0 -55 91 -55 99 1 12 40 -45 49 -71z m-1130
-82 c7 -16 10 -31 7 -33 -9 -9 -36 94 -35 136 2 45 2 45 9 -14 5 -33 13 -73
19 -89z m-3543 93 c359 -65 585 -128 837 -233 106 -44 234 -108 262 -131 19
-15 15 -16 -68 -11 -172 12 -310 50 -557 156 -80 34 -244 98 -365 142 -286
105 -291 106 -284 107 4 1 83 -13 175 -30z m1882 -94 c2 -2 -4 -28 -13 -59 -9
-31 -15 -80 -14 -109 3 -49 2 -52 -21 -55 -14 -2 -37 -7 -51 -13 -41 -16 -74
4 -108 63 -26 44 -31 64 -31 118 l0 65 118 -3 c64 -2 118 -5 120 -7z m3567
-99 c24 -11 40 -27 55 -59 12 -26 30 -47 42 -50 30 -8 67 9 78 37 6 18 19 27
44 32 31 5 41 2 71 -25 45 -39 69 -39 106 0 30 32 59 34 59 3 0 -9 14 -29 30
-44 43 -41 37 -100 -11 -100 -23 0 -65 -35 -72 -59 -3 -11 4 -37 15 -57 27
-51 18 -68 -33 -61 -23 3 -51 15 -63 26 -12 12 -32 21 -45 21 -12 0 -33 12
-47 28 -22 23 -34 27 -82 27 -32 1 -65 -3 -74 -7 -14 -7 -18 -4 -18 11 0 11
-8 36 -17 56 -14 29 -22 35 -49 35 -22 0 -39 -8 -51 -23 -11 -13 -26 -21 -40
-19 -19 3 -22 -2 -25 -40 -3 -38 -6 -43 -29 -46 -17 -2 -37 6 -55 21 -26 23
-27 26 -14 56 10 25 10 38 1 57 -19 42 -13 74 20 104 16 16 40 32 52 36 12 4
35 17 50 30 33 28 54 30 102 10z m-5473 -52 c107 -17 239 -59 417 -131 75 -31
161 -64 191 -75 99 -34 283 -76 385 -88 176 -21 345 -51 419 -75 39 -13 145
-59 236 -103 91 -44 237 -108 324 -142 204 -79 262 -109 313 -160 58 -57 77
-111 71 -203 -6 -85 -35 -157 -103 -253 -85 -119 -128 -187 -158 -253 -29 -63
-31 -74 -38 -244 -3 -98 -9 -180 -12 -183 -3 -4 -9 11 -13 32 -3 22 -19 86
-36 144 -16 58 -31 140 -35 182 -6 76 -5 79 36 162 38 78 41 91 41 164 0 88 7
101 73 122 44 14 61 39 48 73 -12 32 -150 144 -231 188 -140 76 -214 93 -476
109 -328 20 -439 50 -755 200 -247 117 -303 136 -474 156 -313 36 -386 56
-668 180 -169 75 -292 116 -379 127 -56 8 -65 -8 -12 -18 87 -16 218 -60 339
-114 309 -138 381 -160 641 -191 99 -12 212 -31 253 -41 41 -11 164 -62 280
-118 332 -160 416 -183 751 -206 232 -16 288 -24 373 -53 114 -40 105 -43
-108 -38 -213 5 -201 3 -540 85 -93 22 -291 61 -440 86 -707 119 -843 161
-1120 342 -166 109 -217 136 -315 171 -104 36 -203 57 -380 78 -163 20 -593
14 -785 -10 -137 -18 -329 -21 -320 -6 12 19 214 69 365 89 252 35 459 37 870
11 145 -10 217 -10 335 0 292 24 351 27 450 23 55 -2 139 -11 187 -19z m3798
-120 c77 -14 140 -30 140 -34 0 -4 -7 -20 -15 -37 -8 -17 -18 -72 -21 -124
-10 -151 -41 -192 -113 -155 -17 9 -54 22 -83 30 -48 12 -54 17 -66 50 -29 88
-27 314 3 302 8 -3 77 -17 155 -32z m-1695 -65 c-8 -12 -62 16 -75 40 -17 33
-12 33 35 1 25 -17 43 -35 40 -41z m4090 14 c11 -24 37 -58 58 -77 43 -39 45
-51 15 -83 -27 -29 -73 -31 -88 -3 -13 24 -48 27 -56 5 -4 -9 -15 -20 -25 -26
-17 -9 -19 -6 -17 23 4 42 -28 53 -38 14 -7 -31 -20 -34 -27 -6 -5 20 -33 37
-43 27 -4 -3 1 -16 10 -29 9 -12 16 -38 16 -58 l-1 -35 -19 24 c-11 13 -20 34
-20 48 0 13 -12 40 -26 58 -54 71 -11 122 99 118 53 -2 58 -1 67 23 8 21 15
25 42 22 28 -2 36 -10 53 -45z m-706 0 c5 -10 13 -35 19 -55 9 -32 7 -41 -10
-63 -11 -14 -24 -25 -29 -25 -11 0 -33 49 -43 96 -11 50 41 88 63 47z m-1337
-22 c106 -25 532 -96 665 -112 l102 -12 14 -36 c26 -67 27 -121 4 -211 -33
-127 -19 -124 -332 -65 -288 54 -466 44 -576 -33 -123 -86 -78 -163 126 -213
105 -26 146 -58 165 -129 34 -126 64 -177 119 -200 36 -15 49 -40 20 -40 -28
0 -57 16 -103 58 -42 37 -123 78 -222 110 -90 29 -123 49 -186 108 -31 30 -63
54 -71 54 -21 0 -37 45 -37 103 0 55 33 141 64 166 10 8 29 38 43 65 23 44 27
69 33 183 6 105 12 140 30 177 25 53 27 54 142 27z m1262 -66 l17 -39 -26 24
c-14 13 -25 35 -25 49 0 31 13 19 34 -34z m250 -34 c-4 -14 -8 -41 -8 -58 0
-18 0 -33 0 -33 -1 0 -36 7 -79 15 -43 8 -81 15 -84 15 -3 0 9 17 26 38 18 20
35 42 39 47 5 6 32 8 61 7 52 -4 53 -5 45 -31z m40 -46 c-3 -14 -10 -25 -15
-25 -10 0 -12 41 -3 65 6 15 8 16 16 1 5 -8 6 -27 2 -41z m-3315 23 c22 -23
46 -88 56 -153 8 -52 -9 -29 -29 40 -16 52 -49 91 -101 118 l-30 16 42 1 c31
0 48 -6 62 -22z m750 -17 c134 -30 298 -78 356 -106 l50 -23 -70 -1 c-132 -1
-314 30 -520 89 -55 16 -120 34 -144 40 -138 36 164 37 328 1z m2653 -2 c29
-15 54 -20 88 -17 47 3 47 3 67 -39 11 -24 16 -43 11 -43 -5 0 -56 7 -113 16
-101 16 -103 17 -109 45 -5 27 1 59 10 59 3 0 23 -9 46 -21z m-3431 -46 c31
-33 50 -69 80 -150 12 -32 34 -76 49 -98 15 -22 30 -51 34 -65 6 -21 0 -17
-36 21 -24 26 -61 59 -83 75 -104 73 -135 117 -135 193 0 73 6 84 38 67 15 -8
39 -27 53 -43z m3674 -33 c3 -5 1 -10 -4 -10 -6 0 -11 5 -11 10 0 6 2 10 4 10
3 0 8 -4 11 -10z m217 -290 c41 -11 106 -33 144 -50 121 -55 206 -70 484 -85
140 -8 305 -21 365 -31 121 -18 206 -14 261 12 44 21 51 51 24 97 -19 32 -20
37 -6 37 26 0 173 -59 198 -79 l22 -18 -30 -16 c-49 -26 -479 -127 -537 -127
-9 0 -18 9 -22 20 -9 29 -100 68 -190 80 -50 6 -158 8 -290 4 -238 -7 -347 4
-540 55 -84 23 -115 36 -133 56 -23 27 -21 51 3 41 7 -2 21 2 32 9 26 21 127
18 215 -5z m-2433 -55 c-9 -46 -7 -90 7 -140 5 -20 0 -21 -100 -23 -81 -3
-106 0 -106 10 0 11 200 212 206 206 1 -2 -2 -26 -7 -53z m1920 16 c35 -12 74
-29 88 -38 22 -15 23 -17 7 -26 -40 -23 -336 17 -474 64 l-85 28 200 -3 c176
-2 208 -5 264 -25z m-3175 -201 c1 -78 -26 -143 -110 -262 -81 -115 -95 -154
-104 -285 -5 -62 -21 -165 -36 -229 -24 -103 -26 -122 -15 -162 16 -63 70
-139 159 -227 74 -73 76 -77 57 -91 -11 -8 -38 -19 -60 -25 -53 -15 -168 12
-208 49 -58 55 -64 171 -17 347 18 67 36 163 40 216 6 70 18 125 44 203 20 58
45 150 56 205 21 112 47 170 120 266 27 36 50 74 50 83 1 14 2 14 12 -3 7 -11
12 -49 12 -85z m401 75 l70 -24 -65 7 c-36 4 -107 7 -157 7 -51 0 -93 1 -93 3
0 2 15 9 33 17 48 21 133 17 212 -10z m707 -447 c29 -23 36 -49 26 -87 -6 -20
-7 -68 -4 -107 8 -82 5 -87 -73 -110 -61 -18 -115 -64 -172 -144 -34 -49 -53
-65 -101 -87 -4 -2 1 11 9 29 10 20 18 72 22 142 4 79 10 111 19 111 6 0 20
15 30 34 12 25 28 38 56 48 56 19 74 39 92 102 20 67 30 81 58 81 12 0 29 -6
38 -12z m-2593 -254 c51 -11 78 -95 45 -142 -18 -27 -15 -71 7 -85 11 -7 36 0
88 23 61 26 78 30 97 21 34 -15 30 -37 -16 -87 -22 -24 -40 -53 -40 -64 0 -72
95 -112 151 -63 14 12 17 11 23 -9 9 -36 7 -87 -5 -109 -5 -11 -34 -35 -62
-53 -29 -19 -62 -44 -74 -57 -22 -24 -55 -93 -66 -140 -4 -15 -18 -34 -32 -43
-31 -20 -36 -52 -5 -36 19 10 19 8 14 -34 -5 -33 -2 -52 10 -70 33 -52 143
-58 218 -13 20 12 71 50 113 85 88 72 132 96 209 116 31 8 71 22 91 32 45 21
112 95 153 170 l32 59 -5 -75 c-9 -112 -23 -155 -68 -206 -46 -53 -100 -82
-217 -118 -56 -17 -113 -44 -167 -80 l-83 -54 -149 4 c-141 4 -194 -4 -139
-22 19 -6 5 -15 -82 -60 -58 -29 -111 -53 -118 -53 -21 -1 29 63 83 106 80 64
90 79 89 132 -2 58 -60 191 -108 247 -38 45 -167 107 -221 107 -37 -1 -206
-48 -245 -68 -38 -20 -99 -19 -122 2 -31 28 -23 59 25 85 24 13 43 32 45 43 1
12 -14 41 -38 69 -49 59 -58 88 -36 120 32 50 119 46 192 -10 104 -80 158 -66
122 32 -15 42 -1 60 56 75 22 6 49 18 58 26 38 34 68 -33 68 -155 0 -88 17
-126 90 -203 72 -76 84 -101 77 -166 -7 -63 12 -70 27 -10 15 58 -7 110 -75
184 -60 63 -98 129 -99 167 0 17 4 16 33 -11 17 -17 59 -45 93 -61 95 -48 101
-65 74 -202 -11 -57 -15 -99 -9 -104 16 -17 25 6 37 89 20 135 17 163 -21 199
-18 17 -51 37 -73 45 -21 8 -49 20 -61 28 -37 25 -115 213 -88 213 17 0 25 23
25 76 0 47 23 114 38 114 5 0 24 -3 41 -6z m1442 -306 c39 -201 38 -189 21
-176 -27 23 -42 76 -42 154 0 83 7 91 21 22z m-988 -99 c43 -35 53 -70 31
-105 -10 -14 -67 -59 -128 -99 -61 -41 -123 -83 -139 -95 l-27 -22 11 29 c14
38 44 69 106 109 70 45 87 79 78 160 -6 59 -5 62 13 57 11 -2 35 -18 55 -34z
m-639 -208 c17 -10 49 -22 71 -26 45 -8 103 -61 121 -112 l11 -30 -41 12 c-23
7 -84 16 -136 19 -87 7 -101 5 -163 -18 -37 -14 -72 -26 -77 -26 -20 0 -9 48
21 90 18 25 29 50 26 61 -4 14 1 21 21 25 15 3 41 10 57 14 46 12 55 12 89 -9z"/>
<path d="M6417 4068 c-4 -12 -4 -32 -1 -44 8 -30 -14 -41 -32 -15 -15 21 -39
28 -48 13 -8 -14 13 -77 35 -106 23 -29 39 -26 39 8 0 12 5 27 11 33 6 6 15
26 20 45 l8 33 -1 -35 c0 -51 1 -57 12 -40 9 14 6 68 -6 113 -7 24 -31 21 -37
-5z m-17 -135 c-1 -12 -7 -7 -20 17 -25 46 -25 59 0 27 11 -14 20 -33 20 -44z"/>
<path d="M13387 3604 c-26 -8 -73 -30 -105 -49 -32 -20 -70 -35 -88 -35 -40 0
-115 -23 -197 -60 -113 -51 -183 -58 -339 -32 -223 37 -293 26 -387 -62 -55
-51 -57 -52 -117 -51 -58 0 -63 2 -113 48 -68 60 -97 62 -140 10 l-31 -37 -42
13 c-24 7 -63 14 -88 16 -25 2 -60 7 -78 10 -30 7 -37 3 -71 -34 -35 -38 -39
-40 -68 -29 -46 17 -79 3 -119 -52 -19 -27 -43 -51 -52 -54 -9 -3 -60 1 -113
8 -69 10 -110 21 -143 41 -59 35 -86 29 -141 -32 -42 -46 -43 -46 -91 -38 -72
11 -88 8 -150 -25 -76 -40 -97 -39 -145 10 -22 22 -46 40 -53 40 -19 0 -138
-60 -163 -83 -23 -20 -42 -20 -100 4 -45 18 -104 -10 -141 -67 -15 -23 -37
-45 -49 -48 -13 -4 -23 -10 -23 -15 0 -22 24 -26 680 -106 192 -23 523 -87
590 -113 14 -5 32 -17 39 -25 11 -14 7 -19 -28 -36 -22 -12 -91 -34 -153 -51
-164 -44 -295 -89 -308 -106 -16 -18 3 -44 31 -44 11 0 19 -3 19 -8 0 -10
-101 -54 -200 -87 -84 -28 -180 -74 -180 -86 0 -4 -12 -21 -26 -38 -20 -24
-47 -37 -126 -62 -156 -48 -183 -91 -108 -173 25 -27 40 -53 40 -69 0 -14 -18
-60 -40 -102 -22 -42 -40 -85 -40 -95 0 -35 -20 -21 -42 27 -20 45 -20 49 -5
97 9 27 14 53 11 58 -7 10 -34 -9 -34 -24 0 -28 -45 -108 -64 -114 -11 -3 -28
-13 -37 -20 -12 -11 -23 -12 -43 -4 -39 14 -72 12 -90 -6 -14 -14 -14 -19 4
-54 56 -110 66 -278 25 -406 -13 -43 -21 -84 -16 -91 12 -23 62 136 68 219 6
85 -16 218 -48 280 l-19 38 30 0 c42 0 70 -16 70 -40 0 -11 5 -20 10 -20 6 0
10 8 10 17 0 36 22 -6 41 -78 20 -73 20 -141 1 -213 -7 -24 -11 -13 -31 75
-13 57 -25 114 -27 127 -6 30 -24 18 -24 -16 0 -15 12 -70 25 -122 14 -52 28
-128 31 -168 7 -74 20 -102 28 -60 22 121 31 198 31 283 0 93 -2 104 -30 153
l-30 53 24 20 c33 27 46 24 70 -16 11 -20 27 -38 36 -41 22 -9 19 -49 -15
-160 -31 -103 -52 -263 -33 -251 6 4 14 32 18 62 9 72 32 151 34 115 2 -30 26
-76 34 -64 3 5 10 28 16 51 6 22 31 70 55 105 73 107 89 145 94 230 5 79 -2
128 -17 128 -5 0 -9 -37 -8 -82 1 -101 -11 -141 -74 -234 -26 -39 -55 -87 -64
-105 -15 -33 -15 -32 -9 46 4 44 8 98 9 120 4 61 23 122 62 199 42 83 39 116
-12 166 -19 19 -35 44 -35 56 0 29 47 58 130 79 85 22 113 38 146 81 30 39 86
70 184 103 79 26 218 85 232 99 15 15 1 30 -35 41 l-32 9 39 16 c21 10 121 41
222 70 192 55 238 79 232 120 -2 11 -17 28 -35 39 -74 43 -407 107 -763 147
-297 34 -456 56 -440 63 8 3 89 13 180 22 144 14 358 40 835 101 73 10 261 19
480 23 327 7 366 10 425 29 90 29 151 71 200 136 78 103 176 127 380 91 100
-18 219 -19 275 -4 22 6 72 25 110 42 76 33 178 61 173 47 -2 -5 -58 -67 -124
-137 -175 -185 -223 -207 -483 -223 -163 -9 -226 -25 -297 -73 -99 -66 -134
-174 -100 -307 15 -59 15 -64 -1 -83 -10 -10 -65 -43 -123 -72 -112 -56 -189
-113 -240 -177 -50 -62 -26 -57 42 8 79 75 128 109 245 168 114 57 129 76 108
135 -45 129 -19 238 71 301 73 49 157 70 323 80 88 5 178 15 207 24 81 25 163
85 254 187 171 189 162 182 222 175 209 -24 316 -16 339 25 15 29 -21 65 -85
84 -61 18 -107 18 -169 -1z m163 -24 c20 -5 45 -17 55 -25 19 -14 19 -16 2
-29 -28 -22 -113 -27 -222 -13 l-100 13 45 23 c25 13 56 27 70 32 36 11 110
10 150 -1z m-1526 -239 c58 -52 103 -69 153 -56 27 6 27 6 10 -13 -22 -24 -92
-55 -174 -78 -47 -13 -119 -17 -383 -19 -320 -2 -410 -9 -700 -50 -277 -39
-801 -98 -808 -90 -10 9 67 75 88 75 12 0 44 -8 70 -17 48 -17 48 -17 87 9 58
38 130 78 143 78 6 0 24 -15 41 -34 45 -52 75 -54 168 -11 71 34 81 36 117 26
67 -19 83 -14 134 39 53 55 78 61 117 30 35 -27 82 -39 189 -46 101 -7 96 -10
158 71 24 32 33 36 60 32 17 -2 39 -7 48 -11 13 -6 28 3 56 35 35 37 43 41 68
34 16 -4 49 -7 73 -7 24 1 56 -5 72 -13 43 -23 62 -18 104 25 21 22 43 40 47
40 4 0 32 -22 62 -49z"/>
<path d="M9786 3138 c-3 -13 -10 -62 -17 -110 -6 -49 -15 -85 -20 -82 -5 3 -9
15 -9 28 0 29 -29 114 -42 122 -18 12 -20 -6 -5 -45 9 -21 21 -69 28 -105 6
-36 15 -68 20 -71 12 -8 27 25 43 92 l14 58 1 -78 c1 -93 15 -98 43 -16 10 29
27 62 36 72 18 17 18 16 12 -41 -4 -32 -13 -69 -19 -81 -33 -61 15 -38 61 29
17 24 17 23 3 -19 -9 -24 -13 -46 -10 -49 3 -3 22 9 43 26 39 30 39 30 34 6
-7 -36 34 -27 84 18 21 19 21 19 27 -12 8 -37 19 -38 43 -3 l17 27 12 -34 c9
-25 17 -34 31 -32 11 1 46 5 78 9 52 5 57 8 41 19 -16 12 -36 12 -102 -2 -21
-4 -23 -1 -23 36 0 46 -7 48 -44 19 l-26 -20 0 25 c0 40 -19 41 -59 2 -44 -43
-54 -45 -41 -10 23 59 -1 60 -52 2 l-37 -43 23 62 c13 34 31 72 40 85 9 12 16
28 16 35 0 28 -22 10 -71 -59 -47 -68 -50 -71 -45 -38 14 94 16 120 7 120 -4
0 -27 -20 -49 -44 l-40 -43 -6 30 c-3 16 -6 47 -6 67 0 64 -24 97 -34 48z"/>
<path d="M1324 2836 c-33 -12 -89 -39 -125 -59 -35 -21 -97 -54 -137 -73 -109
-55 -212 -57 -329 -8 -7 3 -13 -1 -13 -8 0 -16 72 -44 136 -54 65 -10 151 14
254 69 182 97 225 116 294 128 106 19 192 -2 385 -95 86 -42 185 -83 221 -92
86 -22 222 -14 360 20 218 54 391 58 573 12 127 -32 237 -85 405 -194 76 -50
164 -101 195 -114 31 -13 57 -26 57 -29 0 -3 -32 -21 -70 -38 -99 -46 -182
-56 -344 -42 -158 13 -312 50 -536 126 -285 96 -300 99 -505 99 -191 0 -216
-3 -605 -79 -434 -85 -686 -101 -970 -62 -8 1 -17 -2 -20 -8 -11 -22 161 -36
375 -31 228 5 271 10 671 86 334 63 411 73 564 72 156 -1 220 -14 481 -102
271 -90 413 -121 599 -127 169 -6 236 6 336 62 61 35 62 35 105 20 71 -25 255
-55 409 -65 202 -14 284 -26 362 -50 74 -23 164 -84 222 -151 37 -43 98 -161
112 -213 7 -30 24 -35 24 -8 0 36 -63 228 -93 286 -41 77 -117 160 -190 207
-121 79 -347 141 -517 143 -126 1 -188 -13 -297 -66 l-82 -41 -81 37 c-44 20
-135 73 -202 117 -152 100 -255 151 -383 186 -92 26 -114 28 -275 27 -161 0
-187 -3 -320 -33 -160 -36 -295 -44 -365 -22 -22 7 -110 46 -195 86 -85 41
-182 81 -215 90 -87 22 -197 19 -271 -9z m2881 -420 c287 -68 431 -169 510
-359 15 -36 12 -34 -51 32 -77 83 -164 131 -276 155 -40 8 -166 22 -279 31
-129 10 -246 25 -314 40 -61 14 -111 25 -112 25 -2 0 -3 4 -3 8 0 14 112 64
175 78 76 17 254 12 350 -10z"/>
<path d="M11578 2723 c-43 -46 -88 -125 -104 -183 -8 -30 -18 -62 -20 -70 -3
-8 -15 9 -28 42 -31 75 -80 161 -95 166 -10 3 -11 -23 -6 -121 4 -69 4 -138 1
-153 -7 -26 -10 -21 -34 50 -18 55 -37 91 -62 118 -33 34 -42 38 -85 38 -41 0
-46 -2 -39 -17 14 -28 11 -180 -3 -194 -10 -10 -20 -9 -48 4 -46 22 -97 22
-125 -1 -13 -11 -27 -39 -34 -72 l-13 -55 -17 33 c-9 18 -24 32 -35 32 -21 0
-56 -46 -42 -55 5 -3 13 4 16 15 4 12 13 20 21 18 8 -2 14 -5 12 -8 -1 -3 5
-16 15 -30 9 -13 17 -35 17 -48 0 -17 5 -23 17 -20 14 2 20 18 25 63 15 121
48 146 133 104 43 -22 45 -22 65 -4 35 32 52 133 30 189 -11 30 -4 32 44 12
38 -16 76 -83 99 -176 8 -30 19 -55 26 -54 6 1 15 2 20 3 18 3 32 97 27 181
l-6 85 31 -65 c17 -35 39 -96 49 -134 19 -77 40 -99 40 -43 0 63 20 141 57
220 20 42 38 76 39 74 2 -2 -3 -37 -12 -78 -18 -85 -13 -189 11 -226 19 -29
27 -26 -140 -52 -261 -40 -448 -127 -606 -279 -37 -35 -69 -60 -72 -55 -2 4
-7 21 -11 38 -10 42 -24 55 -56 55 -19 0 -36 -10 -53 -30 -20 -23 -26 -26 -31
-14 -8 22 -26 7 -26 -21 0 -38 -46 -156 -71 -179 l-21 -21 5 41 c8 65 -10 132
-52 204 -22 36 -43 77 -46 93 -4 15 -12 27 -17 27 -20 0 0 -65 43 -139 39 -67
43 -81 44 -140 0 -36 -3 -88 -7 -116 -6 -43 -5 -46 4 -22 7 15 19 27 28 27 29
0 90 85 90 125 0 21 20 19 21 -2 0 -10 5 -4 10 12 30 90 43 116 61 126 25 14
39 1 53 -48 19 -69 34 -66 133 29 73 69 111 96 200 141 133 68 227 97 441 132
245 40 306 70 330 160 10 37 -1 210 -14 223 -11 11 -53 -16 -105 -68 -51 -51
-62 -69 -86 -144 -35 -109 -48 -94 -42 48 3 69 11 120 26 161 32 86 27 97 -20
48z m221 -206 c1 -98 -30 -133 -144 -163 -62 -17 -70 -17 -58 -1 6 6 23 50 39
97 25 74 36 93 88 145 l60 60 8 -40 c4 -22 7 -66 7 -98z"/>
<path d="M7436 2178 c-8 -29 -18 -75 -22 -103 -10 -77 -16 -75 -36 11 -18 74
-31 104 -43 93 -3 -3 -1 -56 3 -117 4 -62 6 -112 5 -112 -1 0 -10 15 -19 33
-42 82 -152 178 -188 164 -47 -18 85 -247 168 -292 18 -10 17 -13 -14 -49 -18
-20 -60 -51 -92 -67 -105 -53 -166 -62 -448 -63 -252 -1 -256 -1 -310 -27 -30
-14 -81 -47 -113 -73 -32 -26 -61 -46 -63 -43 -3 2 23 35 58 73 35 38 80 90
101 116 65 80 126 95 233 57 36 -13 86 -22 130 -22 63 -1 77 2 120 28 94 58
109 144 29 175 -59 22 -65 28 -65 63 0 68 -43 92 -118 65 -31 -12 -35 -11 -51
11 -22 28 -35 14 -22 -22 13 -34 28 -37 82 -17 54 20 79 12 79 -25 0 -59 24
-85 93 -99 58 -13 22 -101 -57 -137 -52 -24 -124 -25 -133 -3 -4 11 -8 12 -13
4 -6 -10 -23 -7 -71 9 -35 11 -79 21 -98 21 -50 0 -116 -35 -153 -83 -18 -23
-59 -71 -91 -106 -32 -36 -67 -82 -78 -102 -18 -37 -25 -79 -13 -79 4 0 32 22
63 48 162 140 182 146 482 143 251 -2 308 6 423 58 37 17 84 49 111 75 25 25
51 46 58 46 20 0 178 79 215 107 76 58 111 140 82 194 -18 33 -28 21 -40 -53
-9 -54 -19 -80 -39 -101 -26 -29 -159 -102 -168 -94 -2 3 4 56 14 118 l18 114
3 -75 c2 -41 7 -79 11 -83 4 -4 20 18 36 50 39 83 66 118 76 101 6 -9 9 -5 9
15 0 44 -26 32 -67 -30 l-38 -56 -3 96 c-1 53 -7 97 -12 97 -5 0 -16 -24 -24
-52z m-199 -121 c23 -25 51 -63 62 -86 22 -42 28 -91 12 -91 -30 0 -151 183
-151 228 0 20 30 0 77 -51z m413 20 c0 -13 -7 -32 -15 -43 -9 -12 -13 -13 -11
-4 2 8 7 27 10 43 8 33 16 35 16 4z m-272 -177 c-2 -35 -7 -46 -22 -48 -15 -3
-17 0 -11 14 4 11 10 57 13 104 l6 85 8 -55 c5 -30 7 -75 6 -100z"/>
<path d="M5784 2055 c-38 -17 -70 -42 -63 -49 3 -4 24 0 47 8 l41 15 6 -29 c8
-35 23 -48 101 -89 108 -57 151 -115 123 -167 -7 -14 -12 -39 -11 -56 4 -52
51 -128 79 -128 9 0 4 17 -17 53 -33 59 -36 80 -18 139 10 34 9 44 -7 74 -20
38 -87 92 -150 120 -60 27 -75 43 -75 79 0 39 -16 47 -56 30z"/>
<path d="M5609 1798 c-33 -65 -89 -238 -89 -275 0 -49 17 -40 25 12 3 25 13
63 20 83 14 37 14 36 8 -25 -7 -71 1 -113 22 -113 8 0 33 26 57 58 48 65 132
152 147 152 6 0 22 -21 35 -47 l25 -48 -6 39 c-4 28 -3 37 5 32 7 -4 12 -2 12
3 0 6 -6 11 -14 11 -8 0 -17 11 -20 25 -4 14 -12 25 -20 25 -25 0 -101 -68
-156 -139 l-55 -71 -3 44 c-2 24 8 93 23 154 29 127 28 122 15 122 -5 0 -19
-19 -31 -42z"/>
<path d="M10421 1778 c0 -9 -4 -25 -7 -35 -5 -14 -4 -15 5 -7 7 7 11 22 8 35
-2 13 -5 16 -6 7z"/>
<path d="M9656 1762 c-9 -15 23 -69 93 -157 40 -49 79 -102 87 -117 19 -36 44
-144 44 -193 1 -88 41 -80 50 10 10 117 5 199 -17 247 -28 61 -91 129 -167
178 -60 40 -81 47 -90 32z m151 -115 c29 -28 63 -65 74 -83 26 -43 40 -136 31
-199 l-8 -50 -8 58 c-10 75 -61 175 -132 257 -30 36 -60 73 -65 83 -10 17 -9
17 22 1 18 -9 57 -39 86 -67z"/>
<path d="M3047 1723 c-3 -5 6 -47 19 -93 58 -199 116 -711 86 -758 -5 -7 -13
7 -21 40 -22 89 -70 203 -111 267 -45 69 -125 133 -234 185 -87 43 -107 48
-126 36 -13 -8 -12 -13 4 -42 35 -60 100 -141 214 -262 62 -67 128 -143 147
-171 72 -103 95 -236 56 -314 -55 -106 -206 -138 -223 -46 -6 29 16 180 33
232 6 21 27 68 45 105 37 74 38 78 24 78 -14 0 -54 -66 -77 -130 l-20 -54 -24
74 c-13 40 -29 75 -36 77 -13 5 -38 -67 -50 -142 l-8 -50 -24 110 c-25 124
-81 275 -142 383 -40 72 -173 222 -197 222 -19 0 -15 -75 9 -166 35 -134 79
-253 152 -409 86 -186 107 -245 107 -307 0 -39 -5 -54 -25 -73 -22 -23 -31
-25 -124 -25 -143 0 -365 17 -686 51 -718 78 -1152 36 -1520 -146 -107 -53
-245 -147 -253 -172 -7 -24 17 -13 89 41 187 141 488 242 828 277 144 15 569
6 741 -15 224 -28 550 -56 714 -62 190 -8 227 1 251 60 32 76 15 142 -91 369
-41 86 -83 181 -94 210 -52 143 -97 327 -79 327 18 0 133 -152 173 -230 62
-119 98 -230 135 -410 31 -152 47 -207 57 -198 2 3 6 56 7 119 2 75 9 126 19
149 l15 35 17 -75 c13 -60 15 -89 7 -136 -17 -108 7 -177 69 -195 54 -16 115
8 168 65 65 70 77 146 42 259 -27 88 -77 159 -220 310 -66 71 -139 156 -162
189 l-41 61 29 -7 c48 -12 190 -96 228 -135 58 -60 103 -146 151 -292 26 -77
51 -139 55 -139 22 0 30 47 30 163 0 119 -19 327 -40 438 -6 29 -10 56 -10 62
0 27 13 -11 46 -139 36 -137 37 -143 43 -389 6 -242 7 -251 31 -295 52 -92
160 -132 256 -95 65 25 114 71 215 208 73 96 93 131 114 198 29 93 31 126 9
157 -33 48 -82 19 -173 -103 -25 -33 -46 -55 -48 -49 -3 10 10 56 32 107 5 12
3 17 -8 17 -21 0 -99 -89 -155 -177 -68 -109 -106 -157 -117 -152 -32 14 17
165 99 306 25 43 42 81 39 86 -11 18 -47 -32 -98 -136 -58 -119 -59 -118 -70
5 -11 128 -31 113 -64 -49 -21 -103 -28 -215 -12 -198 5 6 17 64 27 130 16
109 18 116 26 80 4 -22 8 -80 9 -130 1 -94 17 -145 45 -145 8 0 53 57 99 128
46 70 94 138 105 152 l22 25 -6 -27 c-8 -34 2 -58 23 -58 20 0 50 31 110 112
67 90 107 88 97 -4 -3 -26 -15 -71 -28 -100 -28 -65 -181 -273 -233 -315 -96
-79 -231 -62 -289 37 -19 32 -22 58 -28 270 -4 145 -12 265 -22 313 -19 99
-78 287 -123 397 -36 89 -47 107 -56 93z"/>
<path d="M5916 1684 c-9 -24 -7 -97 4 -114 7 -11 10 -4 10 26 0 23 3 56 6 73
7 32 -9 44 -20 15z"/>
<path d="M9632 1656 c-19 -41 12 -125 73 -201 18 -22 50 -70 70 -107 20 -38
43 -68 51 -68 21 0 -53 139 -110 209 -46 55 -73 131 -63 171 7 28 -8 25 -21
-4z"/>
<path d="M9420 1441 c-78 -25 -164 -91 -140 -106 7 -4 60 -4 118 1 134 10 189
6 227 -15 l30 -16 -85 -5 c-88 -5 -150 -31 -164 -66 -9 -25 -7 -72 4 -79 6 -3
10 -15 10 -26 0 -19 -7 -20 -247 -18 -199 2 -266 -1 -336 -15 -88 -17 -193
-50 -211 -67 -23 -21 10 -20 81 4 152 50 238 60 468 55 116 -3 221 -2 234 1
39 10 48 34 27 73 -15 28 -16 39 -7 56 26 49 126 73 225 52 32 -6 60 -9 63 -7
11 12 -21 48 -65 74 -42 25 -56 28 -142 28 -52 0 -117 -4 -144 -8 -62 -11 -54
5 18 39 57 26 151 32 220 13 65 -18 129 -88 187 -206 33 -65 56 -100 62 -94 5
5 -6 40 -30 92 -81 172 -166 240 -303 246 -41 1 -86 -1 -100 -6z"/>
<path d="M2170 1201 c0 -13 104 -143 194 -242 42 -46 76 -90 76 -99 0 -8 7
-62 15 -120 7 -57 12 -106 11 -108 -9 -8 -67 54 -91 96 -49 84 -135 162 -181
162 -24 0 -11 -42 36 -115 22 -33 46 -77 55 -99 19 -45 26 -45 -87 -2 -89 34
-168 44 -168 23 0 -11 17 -19 58 -27 86 -18 161 -49 216 -87 53 -38 83 -33 41
7 -16 15 -25 34 -25 55 0 28 -15 56 -108 209 -3 5 1 6 9 1 50 -29 76 -56 114
-114 56 -86 118 -146 141 -137 10 4 21 1 25 -6 11 -17 29 33 29 81 0 48 -25
132 -60 201 -15 30 -36 72 -45 93 -24 51 -95 129 -173 188 -65 49 -82 57 -82
40z m224 -224 c13 -22 2 -14 -36 28 -92 100 -115 134 -47 67 36 -34 73 -77 83
-95z m104 -282 l0 -40 -8 35 c-5 19 -11 55 -14 80 l-5 45 14 -40 c7 -22 13
-58 13 -80z"/>
<path d="M2523 853 c9 -9 20 -13 24 -9 4 4 1 11 -7 16 -25 16 -35 11 -17 -7z"/>
</g>
</svg>
